<svg width="103" height="103" viewBox="0 0 103 103" fill="none" xmlns="http://www.w3.org/2000/svg">
<path d="M30.1805 67.4119H56.3612V77H67.3875V67.4119H74.1524V58.1701H67.3875V22.4545H52.9521L30.1805 58.3299V67.4119ZM56.5743 58.1701H41.7927V57.744L56.1482 35.0256H56.5743V58.1701Z" fill="#2E2E2E"/>
<path fill-rule="evenodd" clip-rule="evenodd" d="M53.3273 0.0156565C72.0244 0.690789 88.9525 11.4963 97.4517 28.1807C100.298 33.7676 102.059 39.614 102.786 45.8833C103.071 48.351 103.071 54.7149 102.786 57.1826C99.9993 81.2319 81.2224 100.001 57.1626 102.786C54.6939 103.071 48.3272 103.071 45.8584 102.786C34.1311 101.428 23.36 96.2396 15.0722 87.9554C5.72726 78.6143 0.205559 65.8183 0.00854492 53.0462C-0.0243607 50.9107 0.0232773 50.5239 0.411255 49.7676C1.62121 47.4107 4.73531 47.079 6.57225 49.1115C7.38091 50.0061 7.39342 50.0655 7.69257 54.4587C8.76305 70.1828 18.0805 84.0519 32.2286 90.9812C40.8795 95.218 50.8016 96.5059 60.1492 94.605C75.5635 91.4705 88.2397 80.2674 93.1954 65.3994C99.6029 46.1755 92.0276 25.1665 74.7562 14.2612C68.8597 10.5383 61.6599 8.2254 54.4375 7.73408C50.0424 7.43505 49.983 7.42254 49.088 6.61424C46.5837 4.35277 47.7809 0.45875 51.1068 0.048142C51.4954 0.00011998 52.4946 -0.0144077 53.3273 0.0156565Z" fill="#FF4444"/>
</svg>
