<svg width="120" height="110" viewBox="0 0 120 110" fill="none" xmlns="http://www.w3.org/2000/svg">
<path fill-rule="evenodd" clip-rule="evenodd" d="M59.5037 16.5471L107.1 64.1436V97.5167C107.1 100.673 105.847 103.699 103.615 105.931C101.384 108.162 98.357 109.416 95.2011 109.416H23.8064C20.6505 109.416 17.6239 108.162 15.3924 105.931C13.1609 103.699 11.9072 100.673 11.9072 97.5167V64.1436L59.5037 16.5471ZM99.1675 10.2564V38.021L83.302 22.1555V10.2564C83.302 9.20447 83.7199 8.1956 84.4637 7.45176C85.2075 6.70792 86.2164 6.29004 87.2684 6.29004H95.2011C96.2531 6.29004 97.2619 6.70792 98.0058 7.45176C98.7496 8.1956 99.1675 9.20447 99.1675 10.2564Z" fill="#C9C9C9"/>
<path fill-rule="evenodd" clip-rule="evenodd" d="M53.8922 2.3226C55.3798 0.835441 57.3972 0 59.5006 0C61.6041 0 63.6215 0.835441 65.1091 2.3226L117.838 55.0437C118.583 55.7884 119.001 56.7986 119.001 57.8519C119.001 58.9051 118.583 59.9153 117.838 60.6601C117.093 61.4048 116.083 61.8232 115.03 61.8232C113.977 61.8232 112.966 61.4048 112.222 60.6601L59.5006 7.93106L6.77958 60.6601C6.0348 61.4048 5.02466 61.8232 3.97139 61.8232C2.91811 61.8232 1.90797 61.4048 1.16319 60.6601C0.418413 59.9153 0 58.9051 0 57.8519C0 56.7986 0.418413 55.7884 1.16319 55.0437L53.8922 2.3226Z" fill="#C9C9C9"/>
</svg>
