<svg width="82" height="114" viewBox="0 0 82 114" fill="none" xmlns="http://www.w3.org/2000/svg">
<path d="M41 49C37.8355 49 34.7421 48.0323 32.1109 46.2192C29.4797 44.4062 27.4289 41.8293 26.2179 38.8143C25.0069 35.7993 24.6901 32.4817 25.3074 29.281C25.9248 26.0803 27.4487 23.1403 29.6863 20.8327C31.9239 18.5252 34.7749 16.9537 37.8786 16.3171C40.9823 15.6804 44.1993 16.0071 47.1229 17.256C50.0466 18.5048 52.5454 20.6197 54.3035 23.3331C56.0616 26.0465 57 29.2366 57 32.5C56.9873 36.8721 55.2976 41.0613 52.2997 44.1528C49.3019 47.2444 45.2396 48.9869 41 49ZM41 24.25C39.4178 24.25 37.871 24.7339 36.5554 25.6404C35.2399 26.5469 34.2145 27.8354 33.609 29.3429C33.0035 30.8504 32.845 32.5092 33.1537 34.1095C33.4624 35.7098 34.2243 37.1798 35.3432 38.3336C36.462 39.4874 37.8874 40.2732 39.4393 40.5915C40.9911 40.9098 42.5997 40.7464 44.0615 40.122C45.5233 39.4976 46.7727 38.4402 47.6518 37.0835C48.5308 35.7268 49 34.1317 49 32.5C48.9937 30.314 48.1488 28.2193 46.6499 26.6736C45.1509 25.1278 43.1198 24.2565 41 24.25Z" fill="#C9C9C9"/>
<path d="M73.8 0H8.2C6.02589 0.00215573 3.94145 0.860754 2.40412 2.38737C0.866795 3.91398 0.00217085 5.9839 0 8.14286V105.857C0.00217085 108.016 0.866795 110.086 2.40412 111.613C3.94145 113.139 6.02589 113.998 8.2 114H73.8C75.9741 113.998 78.0585 113.139 79.5959 111.613C81.1332 110.086 81.9978 108.016 82 105.857V8.14286C81.9978 5.9839 81.1332 3.91398 79.5959 2.38737C78.0585 0.860754 75.9741 0.00215573 73.8 0ZM24.6 89.5714V65.1429C24.5671 64.5997 24.6506 64.0557 24.8451 63.547C25.0395 63.0382 25.3404 62.5762 25.7278 62.1914C26.1153 61.8066 26.5806 61.5078 27.0929 61.3148C27.6053 61.1217 28.153 61.0388 28.7 61.0714H53.3C53.847 61.0388 54.3947 61.1217 54.9071 61.3148C55.4194 61.5078 55.8847 61.8066 56.2722 62.1914C56.6596 62.5762 56.9605 63.0382 57.1549 63.547C57.3494 64.0557 57.4329 64.5997 57.4 65.1429V89.5714H49.2V105.857H32.8V89.5714H24.6ZM57.4 105.857V97.7143C59.5728 97.7078 61.6547 96.8479 63.1911 95.3222C64.7275 93.7965 65.5935 91.7291 65.6 89.5714V65.1429C65.63 63.5307 65.3324 61.929 64.7249 60.4336C64.1174 58.9382 63.2125 57.5798 62.0643 56.4396C60.9161 55.2994 59.5482 54.4008 58.0423 53.7976C56.5364 53.1943 54.9235 52.8987 53.3 52.9286H28.7C27.0765 52.8987 25.4636 53.1943 23.9577 53.7976C22.4518 54.4008 21.0839 55.2994 19.9357 56.4396C18.7875 57.5798 17.8826 58.9382 17.2751 60.4336C16.6676 61.929 16.37 63.5307 16.4 65.1429V89.5714C16.4065 91.7291 17.2725 93.7965 18.8089 95.3222C20.3453 96.8479 22.4272 97.7078 24.6 97.7143V105.857H8.2V8.14286H73.8V105.857H57.4Z" fill="#C9C9C9"/>
</svg>
