<svg width="115" height="86" viewBox="0 0 115 86" fill="none" xmlns="http://www.w3.org/2000/svg">
<path d="M112.727 42.6906C110.279 41.7639 108.045 40.3397 106.163 38.5058C101.86 33.6673 98.2278 28.2595 95.3648 22.431L106.491 4.86156C106.759 4.46036 106.926 3.99932 106.979 3.51809C107.032 3.03686 106.968 2.54986 106.794 2.09897C106.62 1.64807 106.34 1.24679 105.978 0.929632C105.617 0.612473 105.184 0.388934 104.719 0.278241C98.9958 -0.489031 93.1746 0.337738 87.8817 2.66954C84.1376 4.33074 80.6718 6.57174 77.609 9.31203C71.7341 6.39001 65.4057 4.51376 58.9014 3.76555C36.5836 1.67317 15.152 16.2202 12.7561 36.4798L12.2966 36.2473C11.1478 35.7343 10.1169 34.9852 9.26936 34.0475C8.42186 33.1099 7.77627 32.0041 7.37358 30.8005C7.11129 29.9527 7.01971 29.0603 7.10428 28.1761C7.18884 27.2918 7.44781 26.4337 7.86588 25.6526C8.2356 24.9954 8.76699 24.4463 9.40843 24.0584C9.80711 23.8141 10.1543 23.4928 10.4303 23.1128C10.7063 22.7327 10.9056 22.3014 11.0168 21.8434C11.128 21.3854 11.149 20.9098 11.0786 20.4436C11.0082 19.9774 10.8477 19.5298 10.6064 19.1263C10.365 18.7229 10.0475 18.3715 9.67193 18.0922C9.29638 17.813 8.87014 17.6113 8.41757 17.4987C7.96499 17.3862 7.49494 17.3649 7.03425 17.4362C6.57355 17.5074 6.13124 17.6698 5.73256 17.9141C4.05603 18.9229 2.66547 20.353 1.69567 22.0656C0.809199 23.6933 0.256372 25.4853 0.0702727 27.3343C-0.115826 29.1833 0.0686281 31.0513 0.612596 32.8265C1.27612 34.9799 2.36622 36.974 3.81641 38.687C5.26659 40.4001 7.04645 41.7962 9.04741 42.7902L12.3294 44.5837C12.8541 53.0349 15.0882 61.2871 18.8935 68.8288C21.5167 74.5211 24.8237 79.8644 28.7396 84.7375C29.0521 85.1378 29.4515 85.4599 29.9068 85.6788C30.3621 85.8976 30.8612 86.0074 31.3652 85.9996H43.2133C43.4847 85.9654 43.7439 85.8656 43.9692 85.7088C44.1945 85.552 44.3792 85.3427 44.5079 85.0986C44.6366 84.8544 44.7054 84.5826 44.7086 84.3059C44.7118 84.0292 44.6492 83.7558 44.5261 83.5087L43.8041 80.9181C43.3714 79.6331 43.0098 78.3247 42.721 76.999C45.7077 77.5304 49.5476 78.0286 52.1404 78.2611C55.5486 78.53 58.9722 78.53 62.3804 78.2611C63.6604 80.586 64.9732 82.6784 66.1547 84.4054C66.4338 84.8242 66.8101 85.1673 67.2507 85.4047C67.6913 85.6421 68.1827 85.7666 68.6819 85.7671H78.889C79.223 85.7627 79.5514 85.679 79.8476 85.5227C80.1438 85.3664 80.3997 85.1418 80.5944 84.8672C80.7892 84.5925 80.9175 84.2754 80.969 83.9414C81.0206 83.6073 80.9938 83.2657 80.891 82.9441C80.1361 80.4863 79.1515 77.1319 78.5608 75.0727C82.8976 73.6757 87.0353 71.7106 90.8684 69.2273C91.3935 68.862 91.9186 68.3638 92.4437 67.932C89.698 67.0828 87.0385 65.9707 84.5012 64.6108C83.8832 64.2849 83.4185 63.7239 83.2092 63.0512C82.9999 62.3785 83.0633 61.6492 83.3854 61.0238C83.7074 60.3984 84.2618 59.9281 84.9265 59.7163C85.5913 59.5046 86.3119 59.5687 86.9299 59.8946C90.2157 61.6175 93.7313 62.8482 97.3668 63.548C100.278 63.9803 103.225 64.1138 106.163 63.9465C106.815 63.9196 107.444 63.6968 107.97 63.3063C108.496 62.9159 108.895 62.3756 109.116 61.7545L114.794 47.0082C114.949 46.588 115.017 46.1405 114.996 45.6927C114.975 45.2449 114.865 44.8061 114.671 44.4026C114.478 43.9992 114.206 43.6395 113.872 43.3453C113.538 43.0511 113.148 42.8283 112.727 42.6906ZM43.1149 18.5119C42.799 18.626 42.4656 18.6822 42.1303 18.6779C41.4851 18.6676 40.8634 18.4313 40.3711 18.0093C39.8788 17.5872 39.5462 17.0055 39.4301 16.3632C39.314 15.7209 39.4215 15.0578 39.7343 14.4867C40.0471 13.9156 40.5459 13.4719 41.1456 13.2311C48.1598 10.5927 55.7566 9.96066 63.1024 11.4044C63.4808 11.4489 63.8461 11.5714 64.1759 11.7642C64.5058 11.9571 64.7931 12.2162 65.0201 12.5257C65.2472 12.8352 65.4092 13.1885 65.4963 13.5637C65.5833 13.939 65.5934 14.3283 65.526 14.7077C65.4587 15.0871 65.3153 15.4485 65.1046 15.7697C64.894 16.0909 64.6206 16.365 64.3013 16.5751C63.982 16.7853 63.6235 16.9271 63.248 16.9917C62.8724 17.0563 62.4878 17.0424 62.1178 16.9509C55.762 15.6966 49.1876 16.2367 43.1149 18.5119ZM84.2059 38.8379C83.2711 38.8379 82.3574 38.5574 81.5802 38.0319C80.803 37.5064 80.1972 36.7594 79.8395 35.8855C79.4818 35.0116 79.3882 34.05 79.5705 33.1223C79.7529 32.1945 80.203 31.3424 80.864 30.6735C81.5249 30.0047 82.3671 29.5492 83.2838 29.3646C84.2006 29.1801 85.1509 29.2748 86.0145 29.6368C86.8781 29.9988 87.6162 30.6118 88.1355 31.3983C88.6548 32.1847 88.932 33.1094 88.932 34.0553C88.9363 34.6834 88.8183 35.3062 88.5848 35.8881C88.3513 36.47 88.0068 36.9997 87.571 37.4469C87.1352 37.8941 86.6166 38.25 86.0448 38.4944C85.473 38.7388 84.8593 38.8668 84.2387 38.8711L84.2059 38.8379Z" fill="#C9C9C9"/>
</svg>
