<svg width="66" height="106" viewBox="0 0 66 106" fill="none" xmlns="http://www.w3.org/2000/svg">
<path d="M9.42857 0C6.92796 0 4.52976 1.01526 2.76156 2.82243C0.993364 4.62959 0 7.08064 0 9.63636V96.3636C0 98.9194 0.993364 101.37 2.76156 103.178C4.52976 104.985 6.92796 106 9.42857 106H56.5714C59.072 106 61.4702 104.985 63.2384 103.178C65.0066 101.37 66 98.9194 66 96.3636V9.63636C66 7.08064 65.0066 4.62959 63.2384 2.82243C61.4702 1.01526 59.072 0 56.5714 0H9.42857ZM9.42857 14.4545H56.5714V91.5455H9.42857V14.4545ZM18.8571 24.0909V43.3636H25.9286V31.3182H37.7143V24.0909H18.8571ZM40.0714 62.6364V74.6818H28.2857V81.9091H47.1429V62.6364H40.0714Z" fill="#C9C9C9"/>
</svg>
